ply
format ascii 1.0
element vertex 77
property float x
property float y
property float z
property uchar red
property uchar green
property uchar blue
end_header
-0.349723 0.0111185  0.100369 0 255 0
-1.23885 0.126173   1.0132 0 255 0
-1.40778 0.146485  1.25115 0 255 0
-1.05739 0.104869 0.795428 0 255 0
-0.999143 0.0970612  0.727302 0 255 0
-0.419145 0.0194944  0.153148 0 255 0
-1.25456 0.128067  1.02781 0 255 0
-1.14257 0.115218 0.896837 0 255 0
-1.39809 0.145474  1.23316 0 255 0
-1.02973  0.10121 0.759907 0 255 0
 -0.89588 0.0825845  0.606047 0 255 0
-0.655238 0.0507383   0.36478 0 255 0
-0.985777 0.0949569  0.708974 0 255 0
-1.29223 0.132337  1.07962 0 255 0
-1.18748 0.120225 0.943758 0 255 0
-0.637939 0.0486161  0.351763 0 255 0
-0.671018 0.0527267  0.382307 0 255 0
-0.971043 0.0931454  0.691229 0 255 0
-0.912489 0.0850183  0.620722 0 255 0
-0.535598 0.0355218  0.264267 0 255 0
-0.880835 0.0806318  0.588549 0 255 0
-0.927121 0.0870906  0.638474 0 255 0
-0.752384 0.0642033  0.461081 0 255 0
-1.37468 0.142401  1.19948 0 255 0
 -0.331341 0.00821927  0.0915616 0 255 0
 -0.57042 0.0400766  0.292333 0 255 0
 -0.296478 0.00382982  0.0711083 0 255 0
-1.10094 0.110317 0.845686 0 255 0
-0.719995 0.0598782  0.429548 0 255 0
-0.486961 0.0288226  0.215356 0 255 0
 -1.2647 0.129295  1.04714 0 255 0
-1.12802 0.113582 0.880605 0 255 0
-0.453746 0.0244182  0.182998 0 255 0
-0.621762 0.0467048  0.335401 0 255 0
-0.553817 0.0377822  0.274987 0 255 0
-0.366843 0.0133115  0.113493 0 255 0
-1.35149 0.139603  1.16532 0 255 0
-0.384021 0.0158252   0.12924 0 255 0
  -1.0152 0.0992052  0.742686 0 255 0
-0.833415  0.074546  0.539813 0 255 0
-1.34134  0.13852  1.14704 0 255 0
-1.36258 0.141131  1.18294 0 255 0
-0.735594 0.0620697  0.446483 0 255 0
-1.21312 0.122915 0.978726 0 255 0
-0.683334  0.054317  0.408999 0 255 0
-0.768712 0.0664549  0.476507 0 255 0
-1.07167 0.106852 0.812561 0 255 0
-0.941842 0.0890499  0.655775 0 255 0
-1.08708 0.108621 0.827937 0 255 0
-1.04387 0.103049 0.777522 0 255 0
-1.27981 0.130724  1.06245 0 255 0
-0.470627 0.0267166  0.198254 0 255 0
-0.604903 0.0442977  0.320731 0 255 0
-0.957358 0.0912854  0.672286 0 255 0
-1.30348 0.133732  1.09742 0 255 0
-0.40231 0.016901 0.139031 0 255 0
  -1.159 0.117083 0.911163 0 255 0
-1.31745  0.13552  1.11317 0 255 0
-0.848995 0.0767097  0.556329 0 255 0
 -1.1975 0.121061 0.964062 0 255 0
-0.436078 0.0223474  0.170349 0 255 0
-0.000259095    -0.219057      2.13765 0 255 0
-0.817279 0.0722549  0.524261 0 255 0
-0.703372 0.0575955  0.415423 0 255 0
-0.865987 0.0784922  0.570581 0 255 0
-0.503541 0.0313884  0.230914 0 255 0
 -0.314496 0.00595106  0.0741985 0 255 0
-1.11763 0.112222 0.859881 0 255 0
-0.519331  0.033178  0.248016 0 255 0
-0.801132 0.0705855  0.508301 0 255 0
-0.784738 0.0685397  0.492791 0 255 0
-1.22717 0.124623 0.995029 0 255 0
  -0.245258 -0.00250833    0.023818 0 255 0
-1.32797 0.136775  1.13095 0 255 0
 -1.3855 0.143918  1.21719 0 255 0
-0.587515 0.0421455  0.306706 0 255 0
-1.17176 0.118609 0.928822 0 255 0
