<?xml version="1.0" standalone="yes"?>
<!-- SVG graphic -->
<svg xmlns='http://www.w3.org/2000/svg' xmlns:xlink='http://www.w3.org/1999/xlink'
 version="1.1">
<rect x="0" y="-1.52588e-05" width="6" height="200" stroke="black" stroke-width="1" fill="blue" tooltip="enable"><title>(0,2712)</title></rect><rect x="6" y="59.5133" width="6" height="140.487" stroke="black" stroke-width="1" fill="blue" tooltip="enable"><title>(0.0388013,1905)</title></rect><rect x="12" y="65.7817" width="6" height="134.218" stroke="black" stroke-width="1" fill="blue" tooltip="enable"><title>(0.0776025,1820)</title></rect><rect x="18" y="84.2183" width="6" height="115.782" stroke="black" stroke-width="1" fill="blue" tooltip="enable"><title>(0.116404,1570)</title></rect><rect x="24" y="91.9616" width="6" height="108.038" stroke="black" stroke-width="1" fill="blue" tooltip="enable"><title>(0.155205,1465)</title></rect><rect x="30" y="102.065" width="6" height="97.9351" stroke="black" stroke-width="1" fill="blue" tooltip="enable"><title>(0.194006,1328)</title></rect><rect x="36" y="117.257" width="6" height="82.7434" stroke="black" stroke-width="1" fill="blue" tooltip="enable"><title>(0.232808,1122)</title></rect><rect x="42" y="122.788" width="6" height="77.2124" stroke="black" stroke-width="1" fill="blue" tooltip="enable"><title>(0.271609,1047)</title></rect><rect x="48" y="128.024" width="6" height="71.9764" stroke="black" stroke-width="1" fill="blue" tooltip="enable"><title>(0.31041,976)</title></rect><rect x="54" y="138.422" width="6" height="61.5782" stroke="black" stroke-width="1" fill="blue" tooltip="enable"><title>(0.349211,835)</title></rect><rect x="60" y="147.271" width="6" height="52.7286" stroke="black" stroke-width="1" fill="blue" tooltip="enable"><title>(0.388013,715)</title></rect><rect x="66" y="151.254" width="6" height="48.7463" stroke="black" stroke-width="1" fill="blue" tooltip="enable"><title>(0.426814,661)</title></rect><rect x="72" y="157.227" width="6" height="42.7729" stroke="black" stroke-width="1" fill="blue" tooltip="enable"><title>(0.465615,580)</title></rect><rect x="78" y="162.463" width="6" height="37.5369" stroke="black" stroke-width="1" fill="blue" tooltip="enable"><title>(0.504416,509)</title></rect><rect x="84" y="167.257" width="6" height="32.7434" stroke="black" stroke-width="1" fill="blue" tooltip="enable"><title>(0.543218,444)</title></rect><rect x="90" y="165.192" width="6" height="34.8083" stroke="black" stroke-width="1" fill="blue" tooltip="enable"><title>(0.582019,472)</title></rect><rect x="96" y="171.313" width="6" height="28.6873" stroke="black" stroke-width="1" fill="blue" tooltip="enable"><title>(0.62082,389)</title></rect><rect x="102" y="175.074" width="6" height="24.9263" stroke="black" stroke-width="1" fill="blue" tooltip="enable"><title>(0.659621,338)</title></rect><rect x="108" y="176.991" width="6" height="23.0089" stroke="black" stroke-width="1" fill="blue" tooltip="enable"><title>(0.698423,312)</title></rect><rect x="114" y="179.867" width="6" height="20.1327" stroke="black" stroke-width="1" fill="blue" tooltip="enable"><title>(0.737224,273)</title></rect><rect x="120" y="182.153" width="6" height="17.8466" stroke="black" stroke-width="1" fill="blue" tooltip="enable"><title>(0.776025,242)</title></rect><rect x="126" y="184.366" width="6" height="15.6342" stroke="black" stroke-width="1" fill="blue" tooltip="enable"><title>(0.814826,212)</title></rect><rect x="132" y="185.177" width="6" height="14.823" stroke="black" stroke-width="1" fill="blue" tooltip="enable"><title>(0.853628,201)</title></rect><rect x="138" y="187.168" width="6" height="12.8319" stroke="black" stroke-width="1" fill="blue" tooltip="enable"><title>(0.892429,174)</title></rect><rect x="144" y="188.791" width="6" height="11.2094" stroke="black" stroke-width="1" fill="blue" tooltip="enable"><title>(0.93123,152)</title></rect><rect x="150" y="187.242" width="6" height="12.7581" stroke="black" stroke-width="1" fill="blue" tooltip="enable"><title>(0.970032,173)</title></rect><rect x="156" y="189.528" width="6" height="10.472" stroke="black" stroke-width="1" fill="blue" tooltip="enable"><title>(1.00883,142)</title></rect><rect x="162" y="188.864" width="6" height="11.1357" stroke="black" stroke-width="1" fill="blue" tooltip="enable"><title>(1.04763,151)</title></rect><rect x="168" y="191.15" width="6" height="8.84956" stroke="black" stroke-width="1" fill="blue" tooltip="enable"><title>(1.08644,120)</title></rect><rect x="174" y="192.552" width="6" height="7.44838" stroke="black" stroke-width="1" fill="blue" tooltip="enable"><title>(1.12524,101)</title></rect><rect x="180" y="191.962" width="6" height="8.03835" stroke="black" stroke-width="1" fill="blue" tooltip="enable"><title>(1.16404,109)</title></rect><rect x="186" y="192.92" width="6" height="7.07965" stroke="black" stroke-width="1" fill="blue" tooltip="enable"><title>(1.20284,96)</title></rect><rect x="192" y="194.174" width="6" height="5.82596" stroke="black" stroke-width="1" fill="blue" tooltip="enable"><title>(1.24164,79)</title></rect><rect x="198" y="194.985" width="6" height="5.01475" stroke="black" stroke-width="1" fill="blue" tooltip="enable"><title>(1.28044,68)</title></rect><rect x="204" y="194.395" width="6" height="5.60472" stroke="black" stroke-width="1" fill="blue" tooltip="enable"><title>(1.31924,76)</title></rect><rect x="210" y="194.911" width="6" height="5.0885" stroke="black" stroke-width="1" fill="blue" tooltip="enable"><title>(1.35804,69)</title></rect><rect x="216" y="194.764" width="6" height="5.23599" stroke="black" stroke-width="1" fill="blue" tooltip="enable"><title>(1.39685,71)</title></rect><rect x="222" y="194.764" width="6" height="5.23599" stroke="black" stroke-width="1" fill="blue" tooltip="enable"><title>(1.43565,71)</title></rect><rect x="228" y="196.534" width="6" height="3.46608" stroke="black" stroke-width="1" fill="blue" tooltip="enable"><title>(1.47445,47)</title></rect><rect x="234" y="196.976" width="6" height="3.0236" stroke="black" stroke-width="1" fill="blue" tooltip="enable"><title>(1.51325,41)</title></rect><rect x="240" y="197.493" width="6" height="2.50737" stroke="black" stroke-width="1" fill="blue" tooltip="enable"><title>(1.55205,34)</title></rect><rect x="246" y="196.239" width="6" height="3.76106" stroke="black" stroke-width="1" fill="blue" tooltip="enable"><title>(1.59085,51)</title></rect><rect x="252" y="197.493" width="6" height="2.50737" stroke="black" stroke-width="1" fill="blue" tooltip="enable"><title>(1.62965,34)</title></rect><rect x="258" y="197.566" width="6" height="2.43363" stroke="black" stroke-width="1" fill="blue" tooltip="enable"><title>(1.66845,33)</title></rect><rect x="264" y="198.083" width="6" height="1.9174" stroke="black" stroke-width="1" fill="blue" tooltip="enable"><title>(1.70726,26)</title></rect><rect x="270" y="197.566" width="6" height="2.43363" stroke="black" stroke-width="1" fill="blue" tooltip="enable"><title>(1.74606,33)</title></rect><rect x="276" y="198.009" width="6" height="1.99115" stroke="black" stroke-width="1" fill="blue" tooltip="enable"><title>(1.78486,27)</title></rect><rect x="282" y="198.009" width="6" height="1.99115" stroke="black" stroke-width="1" fill="blue" tooltip="enable"><title>(1.82366,27)</title></rect><rect x="288" y="196.903" width="6" height="3.09735" stroke="black" stroke-width="1" fill="blue" tooltip="enable"><title>(1.86246,42)</title></rect><rect x="294" y="197.714" width="6" height="2.28614" stroke="black" stroke-width="1" fill="blue" tooltip="enable"><title>(1.90126,31)</title></rect><rect x="300" y="198.378" width="6" height="1.62242" stroke="black" stroke-width="1" fill="blue" tooltip="enable"><title>(1.94006,22)</title></rect><rect x="306" y="199.041" width="6" height="0.958702" stroke="black" stroke-width="1" fill="blue" tooltip="enable"><title>(1.97886,13)</title></rect><rect x="312" y="197.861" width="6" height="2.13864" stroke="black" stroke-width="1" fill="blue" tooltip="enable"><title>(2.01767,29)</title></rect><rect x="318" y="198.525" width="6" height="1.47493" stroke="black" stroke-width="1" fill="blue" tooltip="enable"><title>(2.05647,20)</title></rect><rect x="324" y="198.599" width="6" height="1.40118" stroke="black" stroke-width="1" fill="blue" tooltip="enable"><title>(2.09527,19)</title></rect><rect x="330" y="198.525" width="6" height="1.47493" stroke="black" stroke-width="1" fill="blue" tooltip="enable"><title>(2.13407,20)</title></rect><rect x="336" y="198.82" width="6" height="1.17994" stroke="black" stroke-width="1" fill="blue" tooltip="enable"><title>(2.17287,16)</title></rect><rect x="342" y="198.23" width="6" height="1.76991" stroke="black" stroke-width="1" fill="blue" tooltip="enable"><title>(2.21167,24)</title></rect><rect x="348" y="199.484" width="6" height="0.516224" stroke="black" stroke-width="1" fill="blue" tooltip="enable"><title>(2.25047,7)</title></rect><rect x="354" y="199.484" width="6" height="0.516224" stroke="black" stroke-width="1" fill="blue" tooltip="enable"><title>(2.28927,7)</title></rect><rect x="360" y="198.525" width="6" height="1.47493" stroke="black" stroke-width="1" fill="blue" tooltip="enable"><title>(2.32808,20)</title></rect><rect x="366" y="199.189" width="6" height="0.811209" stroke="black" stroke-width="1" fill="blue" tooltip="enable"><title>(2.36688,11)</title></rect><rect x="372" y="199.705" width="6" height="0.294985" stroke="black" stroke-width="1" fill="blue" tooltip="enable"><title>(2.40568,4)</title></rect><rect x="378" y="198.894" width="6" height="1.10619" stroke="black" stroke-width="1" fill="blue" tooltip="enable"><title>(2.44448,15)</title></rect><rect x="384" y="199.189" width="6" height="0.811209" stroke="black" stroke-width="1" fill="blue" tooltip="enable"><title>(2.48328,11)</title></rect><rect x="390" y="199.558" width="6" height="0.442478" stroke="black" stroke-width="1" fill="blue" tooltip="enable"><title>(2.52208,6)</title></rect><rect x="396" y="199.189" width="6" height="0.811209" stroke="black" stroke-width="1" fill="blue" tooltip="enable"><title>(2.56088,11)</title></rect><rect x="402" y="199.558" width="6" height="0.442478" stroke="black" stroke-width="1" fill="blue" tooltip="enable"><title>(2.59968,6)</title></rect><rect x="408" y="199.336" width="6" height="0.663717" stroke="black" stroke-width="1" fill="blue" tooltip="enable"><title>(2.63849,9)</title></rect><rect x="414" y="199.484" width="6" height="0.516224" stroke="black" stroke-width="1" fill="blue" tooltip="enable"><title>(2.67729,7)</title></rect><rect x="420" y="199.853" width="6" height="0.147493" stroke="black" stroke-width="1" fill="blue" tooltip="enable"><title>(2.71609,2)</title></rect><rect x="426" y="199.705" width="6" height="0.294985" stroke="black" stroke-width="1" fill="blue" tooltip="enable"><title>(2.75489,4)</title></rect><rect x="432" y="199.41" width="6" height="0.589971" stroke="black" stroke-width="1" fill="blue" tooltip="enable"><title>(2.79369,8)</title></rect><rect x="438" y="199.705" width="6" height="0.294985" stroke="black" stroke-width="1" fill="blue" tooltip="enable"><title>(2.83249,4)</title></rect><rect x="444" y="199.41" width="6" height="0.589971" stroke="black" stroke-width="1" fill="blue" tooltip="enable"><title>(2.87129,8)</title></rect><rect x="450" y="199.558" width="6" height="0.442478" stroke="black" stroke-width="1" fill="blue" tooltip="enable"><title>(2.91009,6)</title></rect><rect x="456" y="199.558" width="6" height="0.442478" stroke="black" stroke-width="1" fill="blue" tooltip="enable"><title>(2.9489,6)</title></rect><rect x="462" y="199.779" width="6" height="0.221239" stroke="black" stroke-width="1" fill="blue" tooltip="enable"><title>(2.9877,3)</title></rect><rect x="468" y="199.336" width="6" height="0.663717" stroke="black" stroke-width="1" fill="blue" tooltip="enable"><title>(3.0265,9)</title></rect><rect x="474" y="199.705" width="6" height="0.294985" stroke="black" stroke-width="1" fill="blue" tooltip="enable"><title>(3.0653,4)</title></rect><rect x="480" y="199.631" width="6" height="0.368732" stroke="black" stroke-width="1" fill="blue" tooltip="enable"><title>(3.1041,5)</title></rect><rect x="486" y="199.705" width="6" height="0.294985" stroke="black" stroke-width="1" fill="blue" tooltip="enable"><title>(3.1429,4)</title></rect><rect x="492" y="199.853" width="6" height="0.147493" stroke="black" stroke-width="1" fill="blue" tooltip="enable"><title>(3.1817,2)</title></rect><rect x="498" y="199.558" width="6" height="0.442478" stroke="black" stroke-width="1" fill="blue" tooltip="enable"><title>(3.2205,6)</title></rect><rect x="504" y="199.779" width="6" height="0.221239" stroke="black" stroke-width="1" fill="blue" tooltip="enable"><title>(3.25931,3)</title></rect><rect x="510" y="199.631" width="6" height="0.368732" stroke="black" stroke-width="1" fill="blue" tooltip="enable"><title>(3.29811,5)</title></rect><rect x="516" y="200" width="6" height="0" stroke="black" stroke-width="1" fill="blue" tooltip="enable"><title>(3.33691,0)</title></rect><rect x="522" y="199.853" width="6" height="0.147493" stroke="black" stroke-width="1" fill="blue" tooltip="enable"><title>(3.37571,2)</title></rect><rect x="528" y="200" width="6" height="0" stroke="black" stroke-width="1" fill="blue" tooltip="enable"><title>(3.41451,0)</title></rect><rect x="534" y="199.853" width="6" height="0.147493" stroke="black" stroke-width="1" fill="blue" tooltip="enable"><title>(3.45331,2)</title></rect><rect x="540" y="200" width="6" height="0" stroke="black" stroke-width="1" fill="blue" tooltip="enable"><title>(3.49211,0)</title></rect><rect x="546" y="199.926" width="6" height="0.0737463" stroke="black" stroke-width="1" fill="blue" tooltip="enable"><title>(3.53092,1)</title></rect><rect x="552" y="199.853" width="6" height="0.147493" stroke="black" stroke-width="1" fill="blue" tooltip="enable"><title>(3.56972,2)</title></rect><rect x="558" y="200" width="6" height="0" stroke="black" stroke-width="1" fill="blue" tooltip="enable"><title>(3.60852,0)</title></rect><rect x="564" y="199.926" width="6" height="0.0737463" stroke="black" stroke-width="1" fill="blue" tooltip="enable"><title>(3.64732,1)</title></rect><rect x="570" y="199.926" width="6" height="0.0737463" stroke="black" stroke-width="1" fill="blue" tooltip="enable"><title>(3.68612,1)</title></rect><rect x="576" y="200" width="6" height="0" stroke="black" stroke-width="1" fill="blue" tooltip="enable"><title>(3.72492,0)</title></rect><rect x="582" y="199.853" width="6" height="0.147493" stroke="black" stroke-width="1" fill="blue" tooltip="enable"><title>(3.76372,2)</title></rect><rect x="588" y="200" width="6" height="0" stroke="black" stroke-width="1" fill="blue" tooltip="enable"><title>(3.80252,0)</title></rect><rect x="594" y="199.779" width="6" height="0.221239" stroke="black" stroke-width="1" fill="blue" tooltip="enable"><title>(3.84133,3)</title></rect><text x="30" y="240" font-size="20" fill="black">0</text>
<text x="600" y="240" font-size="20" fill="black">3.88013</text>
<polyline points="0,220,600,220" stroke="black" stroke-width="1" fill="none"/>
<text x="720" y="20" font-size="20" fill="black">2712</text>
<text x="720" y="200" font-size="20" fill="black">0</text>
<polyline points="660,0,660,200" stroke="black" stroke-width="1" fill="none"/>
</svg>