<?xml version="1.0" standalone="yes"?>
<!-- SVG graphic -->
<svg xmlns='http://www.w3.org/2000/svg' xmlns:xlink='http://www.w3.org/1999/xlink'
 version="1.1">
<rect x="0" y="0" width="6" height="200" stroke="black" stroke-width="1" fill="blue" tooltip="enable"><title>(0,4089)</title></rect><rect x="6" y="22.9396" width="6" height="177.06" stroke="black" stroke-width="1" fill="blue" tooltip="enable"><title>(0.039656,3620)</title></rect><rect x="12" y="32.673" width="6" height="167.327" stroke="black" stroke-width="1" fill="blue" tooltip="enable"><title>(0.079312,3421)</title></rect><rect x="18" y="46.3194" width="6" height="153.681" stroke="black" stroke-width="1" fill="blue" tooltip="enable"><title>(0.118968,3142)</title></rect><rect x="24" y="60.7484" width="6" height="139.252" stroke="black" stroke-width="1" fill="blue" tooltip="enable"><title>(0.158624,2847)</title></rect><rect x="30" y="67.8895" width="6" height="132.111" stroke="black" stroke-width="1" fill="blue" tooltip="enable"><title>(0.19828,2701)</title></rect><rect x="36" y="79.5304" width="6" height="120.47" stroke="black" stroke-width="1" fill="blue" tooltip="enable"><title>(0.237936,2463)</title></rect><rect x="42" y="95.4757" width="6" height="104.524" stroke="black" stroke-width="1" fill="blue" tooltip="enable"><title>(0.277592,2137)</title></rect><rect x="48" y="101.981" width="6" height="98.0191" stroke="black" stroke-width="1" fill="blue" tooltip="enable"><title>(0.317248,2004)</title></rect><rect x="54" y="111.861" width="6" height="88.1389" stroke="black" stroke-width="1" fill="blue" tooltip="enable"><title>(0.356904,1802)</title></rect><rect x="60" y="119.442" width="6" height="80.5576" stroke="black" stroke-width="1" fill="blue" tooltip="enable"><title>(0.39656,1647)</title></rect><rect x="66" y="132.062" width="6" height="67.9384" stroke="black" stroke-width="1" fill="blue" tooltip="enable"><title>(0.436216,1389)</title></rect><rect x="72" y="133.92" width="6" height="66.0797" stroke="black" stroke-width="1" fill="blue" tooltip="enable"><title>(0.475872,1351)</title></rect><rect x="78" y="143.409" width="6" height="56.5909" stroke="black" stroke-width="1" fill="blue" tooltip="enable"><title>(0.515528,1157)</title></rect><rect x="84" y="146.295" width="6" height="53.7051" stroke="black" stroke-width="1" fill="blue" tooltip="enable"><title>(0.555184,1098)</title></rect><rect x="90" y="154.806" width="6" height="45.1944" stroke="black" stroke-width="1" fill="blue" tooltip="enable"><title>(0.59484,924)</title></rect><rect x="96" y="160.724" width="6" height="39.2761" stroke="black" stroke-width="1" fill="blue" tooltip="enable"><title>(0.634496,803)</title></rect><rect x="102" y="159.697" width="6" height="40.3033" stroke="black" stroke-width="1" fill="blue" tooltip="enable"><title>(0.674152,824)</title></rect><rect x="108" y="164.784" width="6" height="35.2164" stroke="black" stroke-width="1" fill="blue" tooltip="enable"><title>(0.713808,720)</title></rect><rect x="114" y="168.745" width="6" height="31.2546" stroke="black" stroke-width="1" fill="blue" tooltip="enable"><title>(0.753464,639)</title></rect><rect x="120" y="172.658" width="6" height="27.3416" stroke="black" stroke-width="1" fill="blue" tooltip="enable"><title>(0.79312,559)</title></rect><rect x="126" y="175.593" width="6" height="24.4069" stroke="black" stroke-width="1" fill="blue" tooltip="enable"><title>(0.832776,499)</title></rect><rect x="132" y="177.843" width="6" height="22.157" stroke="black" stroke-width="1" fill="blue" tooltip="enable"><title>(0.872432,453)</title></rect><rect x="138" y="178.381" width="6" height="21.619" stroke="black" stroke-width="1" fill="blue" tooltip="enable"><title>(0.912088,442)</title></rect><rect x="144" y="181.267" width="6" height="18.7332" stroke="black" stroke-width="1" fill="blue" tooltip="enable"><title>(0.951744,383)</title></rect><rect x="150" y="185.033" width="6" height="14.967" stroke="black" stroke-width="1" fill="blue" tooltip="enable"><title>(0.9914,306)</title></rect><rect x="156" y="183.174" width="6" height="16.8256" stroke="black" stroke-width="1" fill="blue" tooltip="enable"><title>(1.03106,344)</title></rect><rect x="162" y="185.718" width="6" height="14.2822" stroke="black" stroke-width="1" fill="blue" tooltip="enable"><title>(1.07071,292)</title></rect><rect x="168" y="187.674" width="6" height="12.3258" stroke="black" stroke-width="1" fill="blue" tooltip="enable"><title>(1.11037,252)</title></rect><rect x="174" y="189.337" width="6" height="10.6628" stroke="black" stroke-width="1" fill="blue" tooltip="enable"><title>(1.15002,218)</title></rect><rect x="180" y="188.995" width="6" height="11.0051" stroke="black" stroke-width="1" fill="blue" tooltip="enable"><title>(1.18968,225)</title></rect><rect x="186" y="189.973" width="6" height="10.0269" stroke="black" stroke-width="1" fill="blue" tooltip="enable"><title>(1.22934,205)</title></rect><rect x="192" y="190.462" width="6" height="9.53778" stroke="black" stroke-width="1" fill="blue" tooltip="enable"><title>(1.26899,195)</title></rect><rect x="198" y="191.489" width="6" height="8.51064" stroke="black" stroke-width="1" fill="blue" tooltip="enable"><title>(1.30865,174)</title></rect><rect x="204" y="192.81" width="6" height="7.19002" stroke="black" stroke-width="1" fill="blue" tooltip="enable"><title>(1.3483,147)</title></rect><rect x="210" y="192.663" width="6" height="7.33676" stroke="black" stroke-width="1" fill="blue" tooltip="enable"><title>(1.38796,150)</title></rect><rect x="216" y="193.299" width="6" height="6.7009" stroke="black" stroke-width="1" fill="blue" tooltip="enable"><title>(1.42762,137)</title></rect><rect x="222" y="193.984" width="6" height="6.01614" stroke="black" stroke-width="1" fill="blue" tooltip="enable"><title>(1.46727,123)</title></rect><rect x="228" y="195.109" width="6" height="4.89117" stroke="black" stroke-width="1" fill="blue" tooltip="enable"><title>(1.50693,100)</title></rect><rect x="234" y="195.109" width="6" height="4.89117" stroke="black" stroke-width="1" fill="blue" tooltip="enable"><title>(1.54658,100)</title></rect><rect x="240" y="195.402" width="6" height="4.5977" stroke="black" stroke-width="1" fill="blue" tooltip="enable"><title>(1.58624,94)</title></rect><rect x="246" y="194.326" width="6" height="5.67376" stroke="black" stroke-width="1" fill="blue" tooltip="enable"><title>(1.6259,116)</title></rect><rect x="252" y="196.283" width="6" height="3.71729" stroke="black" stroke-width="1" fill="blue" tooltip="enable"><title>(1.66555,76)</title></rect><rect x="258" y="196.429" width="6" height="3.57055" stroke="black" stroke-width="1" fill="blue" tooltip="enable"><title>(1.70521,73)</title></rect><rect x="264" y="196.234" width="6" height="3.7662" stroke="black" stroke-width="1" fill="blue" tooltip="enable"><title>(1.74486,77)</title></rect><rect x="270" y="196.674" width="6" height="3.326" stroke="black" stroke-width="1" fill="blue" tooltip="enable"><title>(1.78452,68)</title></rect><rect x="276" y="197.163" width="6" height="2.83688" stroke="black" stroke-width="1" fill="blue" tooltip="enable"><title>(1.82418,58)</title></rect><rect x="282" y="197.065" width="6" height="2.9347" stroke="black" stroke-width="1" fill="blue" tooltip="enable"><title>(1.86383,60)</title></rect><rect x="288" y="197.016" width="6" height="2.98361" stroke="black" stroke-width="1" fill="blue" tooltip="enable"><title>(1.90349,61)</title></rect><rect x="294" y="197.261" width="6" height="2.73906" stroke="black" stroke-width="1" fill="blue" tooltip="enable"><title>(1.94314,56)</title></rect><rect x="300" y="196.625" width="6" height="3.37491" stroke="black" stroke-width="1" fill="blue" tooltip="enable"><title>(1.9828,69)</title></rect><rect x="306" y="197.652" width="6" height="2.34776" stroke="black" stroke-width="1" fill="blue" tooltip="enable"><title>(2.02246,48)</title></rect><rect x="312" y="197.652" width="6" height="2.34776" stroke="black" stroke-width="1" fill="blue" tooltip="enable"><title>(2.06211,48)</title></rect><rect x="318" y="198.239" width="6" height="1.76082" stroke="black" stroke-width="1" fill="blue" tooltip="enable"><title>(2.10177,36)</title></rect><rect x="324" y="197.848" width="6" height="2.15212" stroke="black" stroke-width="1" fill="blue" tooltip="enable"><title>(2.14142,44)</title></rect><rect x="330" y="197.848" width="6" height="2.15212" stroke="black" stroke-width="1" fill="blue" tooltip="enable"><title>(2.18108,44)</title></rect><rect x="336" y="198.484" width="6" height="1.51626" stroke="black" stroke-width="1" fill="blue" tooltip="enable"><title>(2.22074,31)</title></rect><rect x="342" y="198.337" width="6" height="1.663" stroke="black" stroke-width="1" fill="blue" tooltip="enable"><title>(2.26039,34)</title></rect><rect x="348" y="198.435" width="6" height="1.56517" stroke="black" stroke-width="1" fill="blue" tooltip="enable"><title>(2.30005,32)</title></rect><rect x="354" y="198.826" width="6" height="1.17388" stroke="black" stroke-width="1" fill="blue" tooltip="enable"><title>(2.3397,24)</title></rect><rect x="360" y="198.679" width="6" height="1.32062" stroke="black" stroke-width="1" fill="blue" tooltip="enable"><title>(2.37936,27)</title></rect><rect x="366" y="198.63" width="6" height="1.36953" stroke="black" stroke-width="1" fill="blue" tooltip="enable"><title>(2.41902,28)</title></rect><rect x="372" y="198.239" width="6" height="1.76082" stroke="black" stroke-width="1" fill="blue" tooltip="enable"><title>(2.45867,36)</title></rect><rect x="378" y="198.826" width="6" height="1.17388" stroke="black" stroke-width="1" fill="blue" tooltip="enable"><title>(2.49833,24)</title></rect><rect x="384" y="199.217" width="6" height="0.782587" stroke="black" stroke-width="1" fill="blue" tooltip="enable"><title>(2.53798,16)</title></rect><rect x="390" y="199.511" width="6" height="0.489117" stroke="black" stroke-width="1" fill="blue" tooltip="enable"><title>(2.57764,10)</title></rect><rect x="396" y="199.12" width="6" height="0.880411" stroke="black" stroke-width="1" fill="blue" tooltip="enable"><title>(2.6173,18)</title></rect><rect x="402" y="199.266" width="6" height="0.733676" stroke="black" stroke-width="1" fill="blue" tooltip="enable"><title>(2.65695,15)</title></rect><rect x="408" y="199.217" width="6" height="0.782587" stroke="black" stroke-width="1" fill="blue" tooltip="enable"><title>(2.69661,16)</title></rect><rect x="414" y="199.169" width="6" height="0.831499" stroke="black" stroke-width="1" fill="blue" tooltip="enable"><title>(2.73626,17)</title></rect><rect x="420" y="198.973" width="6" height="1.02715" stroke="black" stroke-width="1" fill="blue" tooltip="enable"><title>(2.77592,21)</title></rect><rect x="426" y="199.462" width="6" height="0.538029" stroke="black" stroke-width="1" fill="blue" tooltip="enable"><title>(2.81558,11)</title></rect><rect x="432" y="199.462" width="6" height="0.538029" stroke="black" stroke-width="1" fill="blue" tooltip="enable"><title>(2.85523,11)</title></rect><rect x="438" y="199.609" width="6" height="0.391294" stroke="black" stroke-width="1" fill="blue" tooltip="enable"><title>(2.89489,8)</title></rect><rect x="444" y="199.169" width="6" height="0.831499" stroke="black" stroke-width="1" fill="blue" tooltip="enable"><title>(2.93454,17)</title></rect><rect x="450" y="199.413" width="6" height="0.586941" stroke="black" stroke-width="1" fill="blue" tooltip="enable"><title>(2.9742,12)</title></rect><rect x="456" y="199.462" width="6" height="0.538029" stroke="black" stroke-width="1" fill="blue" tooltip="enable"><title>(3.01385,11)</title></rect><rect x="462" y="199.609" width="6" height="0.391294" stroke="black" stroke-width="1" fill="blue" tooltip="enable"><title>(3.05351,8)</title></rect><rect x="468" y="199.56" width="6" height="0.440205" stroke="black" stroke-width="1" fill="blue" tooltip="enable"><title>(3.09317,9)</title></rect><rect x="474" y="199.56" width="6" height="0.440205" stroke="black" stroke-width="1" fill="blue" tooltip="enable"><title>(3.13282,9)</title></rect><rect x="480" y="199.364" width="6" height="0.635852" stroke="black" stroke-width="1" fill="blue" tooltip="enable"><title>(3.17248,13)</title></rect><rect x="486" y="199.511" width="6" height="0.489117" stroke="black" stroke-width="1" fill="blue" tooltip="enable"><title>(3.21214,10)</title></rect><rect x="492" y="199.658" width="6" height="0.342382" stroke="black" stroke-width="1" fill="blue" tooltip="enable"><title>(3.25179,7)</title></rect><rect x="498" y="199.658" width="6" height="0.342382" stroke="black" stroke-width="1" fill="blue" tooltip="enable"><title>(3.29145,7)</title></rect><rect x="504" y="199.804" width="6" height="0.195647" stroke="black" stroke-width="1" fill="blue" tooltip="enable"><title>(3.3311,4)</title></rect><rect x="510" y="199.511" width="6" height="0.489117" stroke="black" stroke-width="1" fill="blue" tooltip="enable"><title>(3.37076,10)</title></rect><rect x="516" y="199.804" width="6" height="0.195647" stroke="black" stroke-width="1" fill="blue" tooltip="enable"><title>(3.41041,4)</title></rect><rect x="522" y="199.658" width="6" height="0.342382" stroke="black" stroke-width="1" fill="blue" tooltip="enable"><title>(3.45007,7)</title></rect><rect x="528" y="199.902" width="6" height="0.0978234" stroke="black" stroke-width="1" fill="blue" tooltip="enable"><title>(3.48973,2)</title></rect><rect x="534" y="199.658" width="6" height="0.342382" stroke="black" stroke-width="1" fill="blue" tooltip="enable"><title>(3.52938,7)</title></rect><rect x="540" y="199.804" width="6" height="0.195647" stroke="black" stroke-width="1" fill="blue" tooltip="enable"><title>(3.56904,4)</title></rect><rect x="546" y="199.804" width="6" height="0.195647" stroke="black" stroke-width="1" fill="blue" tooltip="enable"><title>(3.6087,4)</title></rect><rect x="552" y="199.755" width="6" height="0.244559" stroke="black" stroke-width="1" fill="blue" tooltip="enable"><title>(3.64835,5)</title></rect><rect x="558" y="199.804" width="6" height="0.195647" stroke="black" stroke-width="1" fill="blue" tooltip="enable"><title>(3.68801,4)</title></rect><rect x="564" y="199.853" width="6" height="0.146735" stroke="black" stroke-width="1" fill="blue" tooltip="enable"><title>(3.72766,3)</title></rect><rect x="570" y="199.755" width="6" height="0.244559" stroke="black" stroke-width="1" fill="blue" tooltip="enable"><title>(3.76732,5)</title></rect><rect x="576" y="199.902" width="6" height="0.0978234" stroke="black" stroke-width="1" fill="blue" tooltip="enable"><title>(3.80697,2)</title></rect><rect x="582" y="199.902" width="6" height="0.0978234" stroke="black" stroke-width="1" fill="blue" tooltip="enable"><title>(3.84663,2)</title></rect><rect x="588" y="199.853" width="6" height="0.146735" stroke="black" stroke-width="1" fill="blue" tooltip="enable"><title>(3.88629,3)</title></rect><rect x="594" y="199.902" width="6" height="0.0978234" stroke="black" stroke-width="1" fill="blue" tooltip="enable"><title>(3.92594,2)</title></rect><text x="30" y="240" font-size="20" fill="black">0</text>
<text x="600" y="240" font-size="20" fill="black">3.9656</text>
<polyline points="0,220,600,220" stroke="black" stroke-width="1" fill="none"/>
<text x="720" y="20" font-size="20" fill="black">4089</text>
<text x="720" y="200" font-size="20" fill="black">0</text>
<polyline points="660,0,660,200" stroke="black" stroke-width="1" fill="none"/>
</svg>