ply
format ascii 1.0
element vertex 28
property float x
property float y
property float z
end_header
4.12337 0.00121492 -11.9125
0.570296 0.0209536 -11.8391
-2.11534 0.0114309 -11.6361
-5.75088 0.00420696 -11.118
-6.66148 0.0011236 -10.9536
-7.51931 0.00190715 -10.9175
-8.40067 0.00210985 -10.7987
-9.31421 -0.00838059 -10.6177
-10.1925 -0.00620619 -10.446
-11.0759 -0.00683002 -10.3741
-12.8177 -0.010966 -10.0064
-14.5515 0.00608839 -9.72638
-16.2682 0.0100383 -9.37857
-18.8182 0.004218 -8.73654
-19.6651 0.00609052 -8.50039
-23.8558 -0.0386834 -7.0846
-27.0711 -0.0676611 -5.82377
-27.8493 -0.0846544 -5.46128
-28.6462 -0.097231 -5.15149
-31.0236 -0.126498 -4.35031
-32.5463 -0.16398 -3.69652
-35.4907 -0.249678 -2.21434
-37.5907 -0.300297 -0.957934
-39.618 -0.363915 0.27367
-44.8198 -0.529842 3.51505
-45.4309 -0.552246 3.95833
8.61013 -0.0378269 -11.942
9.5234 -0.00345933 -11.9544
