ply
format ascii 1.0
element vertex 19
property float x
property float y
property float z
end_header
0.197173 -0.0329672 1.61821
1.27002 -0.102952 0.928068
1.8437 -0.150649 0.960814
-0.314233 0.055183 1.65689
2.97939 -0.173837 1.05151
3.62191 -0.0594044 0.777259
5.38194 0.0316999 1.09882
6.31855 0.0185421 1.28854
6.35008 0.00607888 1.54641
6.25705 -0.0366782 1.54605
6.15705 -0.0694908 1.52836
6.0613 -0.0926944 1.56016
-1.37192 0.356932 1.52553
-2.6339 0.834468 1.10097
-1.96181 3.59797e-008 2.29963
-1.9949 -0.518043 3.08383
-2.61887 -1.79362 1.90496
-3.16581 -2.20443 1.50661
-3.57488 -2.17451 1.79477
