ply
format ascii 1.0
element vertex 25
property float x
property float y
property float z
property uchar diffuse_red
property uchar diffuse_green
property uchar diffuse_blue
end_header
0.197173 -0.0329672 1.61821 255 0 255
1.27002 -0.102952 0.928068 255 0 255
0.688146 -5.12168e-008 1.0919 0 255 0
1.8437 -0.150649 0.960814 255 0 255
-0.314233 0.055183 1.65689 255 0 255
-0.841973 0.164508 1.71974 0 255 0
2.41101 -0.172371 0.942138 0 255 0
2.97939 -0.173837 1.05151 255 0 255
3.62191 -0.0594044 0.777259 255 0 255
4.52052 1.07793e-007 0.980537 0 255 0
5.38194 0.0316999 1.09882 255 0 255
6.31855 0.0185421 1.28854 255 0 255
6.35008 0.00607888 1.54641 255 0 255
6.25705 -0.0366782 1.54605 255 0 255
6.15705 -0.0694908 1.52836 255 0 255
6.0613 -0.0926944 1.56016 255 0 255
-1.37192 0.356932 1.52553 255 0 255
-2.6339 0.834468 1.10097 255 0 255
-1.96181 3.59797e-008 2.29963 255 0 255
-1.94064 -0.327131 2.74892 0 255 0
-1.9949 -0.518043 3.08383 255 0 255
-2.61887 -1.79362 1.90496 255 0 255
-3.16581 -2.20443 1.50661 255 0 255
-3.57488 -2.17451 1.79477 255 0 255
-4.03636 -2.31017 1.1882 0 255 0
