ply
format ascii 1.0
element vertex 19
property float x
property float y
property float z
end_header
1.93936 -0.10338 -7.92336
2.44801 -0.0732212 -8.04872
3.58936 -0.0162981 -8.72995
-0.50622 -0.222994 -6.61949
-5.05602 -0.122642 -3.10857
-5.78094 -0.0401926 -2.09893
-6.59871 -0.00327943 -0.897274
-6.99306 -0.00380062 -0.381271
-7.65661 0.00485082 0.685531
-7.94415 0.0162037 1.20241
-8.2933 0.0498565 1.96492
-8.38966 0.061569 2.21514
7.62252 0.0148266 -10.8116
8.40459 0.0184621 -11.186
12.5556 -0.00692113 -12.6764
15.8697 0.00578999 -14.1
19.5508 0.0270536 -15.3453
33.5771 0.0872695 -18.6208
35.2997 0.0396978 -16.6839
