<?xml version="1.0" standalone="yes"?>
<!-- SVG graphic -->
<svg xmlns='http://www.w3.org/2000/svg' xmlns:xlink='http://www.w3.org/1999/xlink'
 version="1.1">
<rect x="0" y="0" width="6" height="200" stroke="black" stroke-width="1" fill="blue" tooltip="enable"><title>(0,5843)</title></rect><rect x="6" y="17.5252" width="6" height="182.475" stroke="black" stroke-width="1" fill="blue" tooltip="enable"><title>(0.0397691,5331)</title></rect><rect x="12" y="26.2536" width="6" height="173.746" stroke="black" stroke-width="1" fill="blue" tooltip="enable"><title>(0.0795381,5076)</title></rect><rect x="18" y="40.356" width="6" height="159.644" stroke="black" stroke-width="1" fill="blue" tooltip="enable"><title>(0.119307,4664)</title></rect><rect x="24" y="47.6125" width="6" height="152.387" stroke="black" stroke-width="1" fill="blue" tooltip="enable"><title>(0.159076,4452)</title></rect><rect x="30" y="58.7027" width="6" height="141.297" stroke="black" stroke-width="1" fill="blue" tooltip="enable"><title>(0.198845,4128)</title></rect><rect x="36" y="68.0815" width="6" height="131.919" stroke="black" stroke-width="1" fill="blue" tooltip="enable"><title>(0.238614,3854)</title></rect><rect x="42" y="81.02" width="6" height="118.98" stroke="black" stroke-width="1" fill="blue" tooltip="enable"><title>(0.278383,3476)</title></rect><rect x="48" y="97.1077" width="6" height="102.892" stroke="black" stroke-width="1" fill="blue" tooltip="enable"><title>(0.318152,3006)</title></rect><rect x="54" y="101.044" width="6" height="98.956" stroke="black" stroke-width="1" fill="blue" tooltip="enable"><title>(0.357922,2891)</title></rect><rect x="60" y="114.975" width="6" height="85.0248" stroke="black" stroke-width="1" fill="blue" tooltip="enable"><title>(0.397691,2484)</title></rect><rect x="66" y="120.623" width="6" height="79.377" stroke="black" stroke-width="1" fill="blue" tooltip="enable"><title>(0.43746,2319)</title></rect><rect x="72" y="131.713" width="6" height="68.2868" stroke="black" stroke-width="1" fill="blue" tooltip="enable"><title>(0.477229,1995)</title></rect><rect x="78" y="135.444" width="6" height="64.5559" stroke="black" stroke-width="1" fill="blue" tooltip="enable"><title>(0.516998,1886)</title></rect><rect x="84" y="141.982" width="6" height="58.0181" stroke="black" stroke-width="1" fill="blue" tooltip="enable"><title>(0.556767,1695)</title></rect><rect x="90" y="148.588" width="6" height="51.4119" stroke="black" stroke-width="1" fill="blue" tooltip="enable"><title>(0.596536,1502)</title></rect><rect x="96" y="152.901" width="6" height="47.0991" stroke="black" stroke-width="1" fill="blue" tooltip="enable"><title>(0.636305,1376)</title></rect><rect x="102" y="157.727" width="6" height="42.2728" stroke="black" stroke-width="1" fill="blue" tooltip="enable"><title>(0.676074,1235)</title></rect><rect x="108" y="161.458" width="6" height="38.5418" stroke="black" stroke-width="1" fill="blue" tooltip="enable"><title>(0.715843,1126)</title></rect><rect x="114" y="163.751" width="6" height="36.2485" stroke="black" stroke-width="1" fill="blue" tooltip="enable"><title>(0.755612,1059)</title></rect><rect x="120" y="169.262" width="6" height="30.7376" stroke="black" stroke-width="1" fill="blue" tooltip="enable"><title>(0.795381,898)</title></rect><rect x="126" y="171.761" width="6" height="28.2389" stroke="black" stroke-width="1" fill="blue" tooltip="enable"><title>(0.83515,825)</title></rect><rect x="132" y="174.636" width="6" height="25.3637" stroke="black" stroke-width="1" fill="blue" tooltip="enable"><title>(0.874919,741)</title></rect><rect x="138" y="176.69" width="6" height="23.3099" stroke="black" stroke-width="1" fill="blue" tooltip="enable"><title>(0.914688,681)</title></rect><rect x="144" y="177.683" width="6" height="22.3173" stroke="black" stroke-width="1" fill="blue" tooltip="enable"><title>(0.954457,652)</title></rect><rect x="150" y="182.885" width="6" height="17.1145" stroke="black" stroke-width="1" fill="blue" tooltip="enable"><title>(0.994226,500)</title></rect><rect x="156" y="182.338" width="6" height="17.6622" stroke="black" stroke-width="1" fill="blue" tooltip="enable"><title>(1.034,516)</title></rect><rect x="162" y="184.289" width="6" height="15.7111" stroke="black" stroke-width="1" fill="blue" tooltip="enable"><title>(1.07376,459)</title></rect><rect x="168" y="184.768" width="6" height="15.2319" stroke="black" stroke-width="1" fill="blue" tooltip="enable"><title>(1.11353,445)</title></rect><rect x="174" y="186.685" width="6" height="13.3151" stroke="black" stroke-width="1" fill="blue" tooltip="enable"><title>(1.1533,389)</title></rect><rect x="180" y="187.78" width="6" height="12.2198" stroke="black" stroke-width="1" fill="blue" tooltip="enable"><title>(1.19307,357)</title></rect><rect x="186" y="188.636" width="6" height="11.364" stroke="black" stroke-width="1" fill="blue" tooltip="enable"><title>(1.23284,332)</title></rect><rect x="192" y="189.629" width="6" height="10.3714" stroke="black" stroke-width="1" fill="blue" tooltip="enable"><title>(1.27261,303)</title></rect><rect x="198" y="189.218" width="6" height="10.7821" stroke="black" stroke-width="1" fill="blue" tooltip="enable"><title>(1.31238,315)</title></rect><rect x="204" y="191.272" width="6" height="8.72839" stroke="black" stroke-width="1" fill="blue" tooltip="enable"><title>(1.35215,255)</title></rect><rect x="210" y="191.682" width="6" height="8.31765" stroke="black" stroke-width="1" fill="blue" tooltip="enable"><title>(1.39192,243)</title></rect><rect x="216" y="192.846" width="6" height="7.15386" stroke="black" stroke-width="1" fill="blue" tooltip="enable"><title>(1.43169,209)</title></rect><rect x="222" y="192.025" width="6" height="7.97536" stroke="black" stroke-width="1" fill="blue" tooltip="enable"><title>(1.47146,233)</title></rect><rect x="228" y="192.778" width="6" height="7.22232" stroke="black" stroke-width="1" fill="blue" tooltip="enable"><title>(1.51122,211)</title></rect><rect x="234" y="192.949" width="6" height="7.05117" stroke="black" stroke-width="1" fill="blue" tooltip="enable"><title>(1.55099,206)</title></rect><rect x="240" y="194.9" width="6" height="5.10012" stroke="black" stroke-width="1" fill="blue" tooltip="enable"><title>(1.59076,149)</title></rect><rect x="246" y="194.181" width="6" height="5.81893" stroke="black" stroke-width="1" fill="blue" tooltip="enable"><title>(1.63053,170)</title></rect><rect x="252" y="195.619" width="6" height="4.38131" stroke="black" stroke-width="1" fill="blue" tooltip="enable"><title>(1.6703,128)</title></rect><rect x="258" y="195.995" width="6" height="4.00479" stroke="black" stroke-width="1" fill="blue" tooltip="enable"><title>(1.71007,117)</title></rect><rect x="264" y="196.201" width="6" height="3.79942" stroke="black" stroke-width="1" fill="blue" tooltip="enable"><title>(1.74984,111)</title></rect><rect x="270" y="194.866" width="6" height="5.13435" stroke="black" stroke-width="1" fill="blue" tooltip="enable"><title>(1.78961,150)</title></rect><rect x="276" y="196.817" width="6" height="3.1833" stroke="black" stroke-width="1" fill="blue" tooltip="enable"><title>(1.82938,93)</title></rect><rect x="282" y="196.064" width="6" height="3.93633" stroke="black" stroke-width="1" fill="blue" tooltip="enable"><title>(1.86915,115)</title></rect><rect x="288" y="196.68" width="6" height="3.32021" stroke="black" stroke-width="1" fill="blue" tooltip="enable"><title>(1.90891,97)</title></rect><rect x="294" y="196.68" width="6" height="3.32021" stroke="black" stroke-width="1" fill="blue" tooltip="enable"><title>(1.94868,97)</title></rect><rect x="300" y="197.296" width="6" height="2.70409" stroke="black" stroke-width="1" fill="blue" tooltip="enable"><title>(1.98845,79)</title></rect><rect x="306" y="197.399" width="6" height="2.6014" stroke="black" stroke-width="1" fill="blue" tooltip="enable"><title>(2.02822,76)</title></rect><rect x="312" y="197.022" width="6" height="2.97792" stroke="black" stroke-width="1" fill="blue" tooltip="enable"><title>(2.06799,87)</title></rect><rect x="318" y="197.433" width="6" height="2.56717" stroke="black" stroke-width="1" fill="blue" tooltip="enable"><title>(2.10776,75)</title></rect><rect x="324" y="197.501" width="6" height="2.49872" stroke="black" stroke-width="1" fill="blue" tooltip="enable"><title>(2.14753,73)</title></rect><rect x="330" y="197.98" width="6" height="2.01951" stroke="black" stroke-width="1" fill="blue" tooltip="enable"><title>(2.1873,59)</title></rect><rect x="336" y="198.22" width="6" height="1.77991" stroke="black" stroke-width="1" fill="blue" tooltip="enable"><title>(2.22707,52)</title></rect><rect x="342" y="198.391" width="6" height="1.60876" stroke="black" stroke-width="1" fill="blue" tooltip="enable"><title>(2.26684,47)</title></rect><rect x="348" y="198.289" width="6" height="1.71145" stroke="black" stroke-width="1" fill="blue" tooltip="enable"><title>(2.30661,50)</title></rect><rect x="354" y="197.98" width="6" height="2.01951" stroke="black" stroke-width="1" fill="blue" tooltip="enable"><title>(2.34637,59)</title></rect><rect x="360" y="198.254" width="6" height="1.74568" stroke="black" stroke-width="1" fill="blue" tooltip="enable"><title>(2.38614,51)</title></rect><rect x="366" y="198.562" width="6" height="1.43762" stroke="black" stroke-width="1" fill="blue" tooltip="enable"><title>(2.42591,42)</title></rect><rect x="372" y="199.076" width="6" height="0.924183" stroke="black" stroke-width="1" fill="blue" tooltip="enable"><title>(2.46568,27)</title></rect><rect x="378" y="199.007" width="6" height="0.992641" stroke="black" stroke-width="1" fill="blue" tooltip="enable"><title>(2.50545,29)</title></rect><rect x="384" y="198.939" width="6" height="1.0611" stroke="black" stroke-width="1" fill="blue" tooltip="enable"><title>(2.54522,31)</title></rect><rect x="390" y="198.46" width="6" height="1.5403" stroke="black" stroke-width="1" fill="blue" tooltip="enable"><title>(2.58499,45)</title></rect><rect x="396" y="198.87" width="6" height="1.12956" stroke="black" stroke-width="1" fill="blue" tooltip="enable"><title>(2.62476,33)</title></rect><rect x="402" y="198.802" width="6" height="1.19801" stroke="black" stroke-width="1" fill="blue" tooltip="enable"><title>(2.66453,35)</title></rect><rect x="408" y="198.905" width="6" height="1.09533" stroke="black" stroke-width="1" fill="blue" tooltip="enable"><title>(2.7043,32)</title></rect><rect x="414" y="199.213" width="6" height="0.787267" stroke="black" stroke-width="1" fill="blue" tooltip="enable"><title>(2.74406,23)</title></rect><rect x="420" y="199.007" width="6" height="0.992641" stroke="black" stroke-width="1" fill="blue" tooltip="enable"><title>(2.78383,29)</title></rect><rect x="426" y="198.905" width="6" height="1.09533" stroke="black" stroke-width="1" fill="blue" tooltip="enable"><title>(2.8236,32)</title></rect><rect x="432" y="199.315" width="6" height="0.68458" stroke="black" stroke-width="1" fill="blue" tooltip="enable"><title>(2.86337,20)</title></rect><rect x="438" y="199.076" width="6" height="0.924183" stroke="black" stroke-width="1" fill="blue" tooltip="enable"><title>(2.90314,27)</title></rect><rect x="444" y="199.076" width="6" height="0.924183" stroke="black" stroke-width="1" fill="blue" tooltip="enable"><title>(2.94291,27)</title></rect><rect x="450" y="199.076" width="6" height="0.924183" stroke="black" stroke-width="1" fill="blue" tooltip="enable"><title>(2.98268,27)</title></rect><rect x="456" y="199.247" width="6" height="0.753038" stroke="black" stroke-width="1" fill="blue" tooltip="enable"><title>(3.02245,22)</title></rect><rect x="462" y="199.521" width="6" height="0.479206" stroke="black" stroke-width="1" fill="blue" tooltip="enable"><title>(3.06222,14)</title></rect><rect x="468" y="199.247" width="6" height="0.753038" stroke="black" stroke-width="1" fill="blue" tooltip="enable"><title>(3.10199,22)</title></rect><rect x="474" y="199.418" width="6" height="0.581893" stroke="black" stroke-width="1" fill="blue" tooltip="enable"><title>(3.14176,17)</title></rect><rect x="480" y="199.692" width="6" height="0.308061" stroke="black" stroke-width="1" fill="blue" tooltip="enable"><title>(3.18152,9)</title></rect><rect x="486" y="199.521" width="6" height="0.479206" stroke="black" stroke-width="1" fill="blue" tooltip="enable"><title>(3.22129,14)</title></rect><rect x="492" y="199.623" width="6" height="0.376519" stroke="black" stroke-width="1" fill="blue" tooltip="enable"><title>(3.26106,11)</title></rect><rect x="498" y="199.384" width="6" height="0.616122" stroke="black" stroke-width="1" fill="blue" tooltip="enable"><title>(3.30083,18)</title></rect><rect x="504" y="199.692" width="6" height="0.308061" stroke="black" stroke-width="1" fill="blue" tooltip="enable"><title>(3.3406,9)</title></rect><rect x="510" y="199.726" width="6" height="0.273832" stroke="black" stroke-width="1" fill="blue" tooltip="enable"><title>(3.38037,8)</title></rect><rect x="516" y="199.487" width="6" height="0.513435" stroke="black" stroke-width="1" fill="blue" tooltip="enable"><title>(3.42014,15)</title></rect><rect x="522" y="199.623" width="6" height="0.376519" stroke="black" stroke-width="1" fill="blue" tooltip="enable"><title>(3.45991,11)</title></rect><rect x="528" y="199.692" width="6" height="0.308061" stroke="black" stroke-width="1" fill="blue" tooltip="enable"><title>(3.49968,9)</title></rect><rect x="534" y="199.692" width="6" height="0.308061" stroke="black" stroke-width="1" fill="blue" tooltip="enable"><title>(3.53945,9)</title></rect><rect x="540" y="199.692" width="6" height="0.308061" stroke="black" stroke-width="1" fill="blue" tooltip="enable"><title>(3.57922,9)</title></rect><rect x="546" y="199.829" width="6" height="0.171145" stroke="black" stroke-width="1" fill="blue" tooltip="enable"><title>(3.61898,5)</title></rect><rect x="552" y="199.76" width="6" height="0.239603" stroke="black" stroke-width="1" fill="blue" tooltip="enable"><title>(3.65875,7)</title></rect><rect x="558" y="199.795" width="6" height="0.205374" stroke="black" stroke-width="1" fill="blue" tooltip="enable"><title>(3.69852,6)</title></rect><rect x="564" y="199.863" width="6" height="0.136916" stroke="black" stroke-width="1" fill="blue" tooltip="enable"><title>(3.73829,4)</title></rect><rect x="570" y="199.829" width="6" height="0.171145" stroke="black" stroke-width="1" fill="blue" tooltip="enable"><title>(3.77806,5)</title></rect><rect x="576" y="199.863" width="6" height="0.136916" stroke="black" stroke-width="1" fill="blue" tooltip="enable"><title>(3.81783,4)</title></rect><rect x="582" y="199.863" width="6" height="0.136916" stroke="black" stroke-width="1" fill="blue" tooltip="enable"><title>(3.8576,4)</title></rect><rect x="588" y="199.966" width="6" height="0.034229" stroke="black" stroke-width="1" fill="blue" tooltip="enable"><title>(3.89737,1)</title></rect><rect x="594" y="199.897" width="6" height="0.102687" stroke="black" stroke-width="1" fill="blue" tooltip="enable"><title>(3.93714,3)</title></rect><text x="30" y="240" font-size="20" fill="black">0</text>
<text x="600" y="240" font-size="20" fill="black">3.97691</text>
<polyline points="0,220,600,220" stroke="black" stroke-width="1" fill="none"/>
<text x="720" y="20" font-size="20" fill="black">5843</text>
<text x="720" y="200" font-size="20" fill="black">0</text>
<polyline points="660,0,660,200" stroke="black" stroke-width="1" fill="none"/>
</svg>